<svg width="250" height="146" viewBox="0 0 250 146" fill="none" xmlns="http://www.w3.org/2000/svg">
<path d="M69.8691 30C70.4487 38.0595 76.9316 44.4303 85 44.8691C76.9404 45.4488 70.5698 51.9316 70.1309 60C69.5513 51.9406 63.0684 45.5698 55 45.1309C63.0595 44.5513 69.4303 38.0684 69.8691 30Z" fill="#EEEEEE"/>
<path d="M84.3191 60.7221H75.7414C76.2316 52.5733 82.7874 50 90.1397 50C97.7984 50 103.925 52.7571 103.925 61.0285V82.7791H95.3476V76.6521H95.0413C95.0413 76.6521 93.0806 83.6981 84.9318 83.6981C79.1112 83.6981 74.8224 81.0023 74.8224 75.1204C74.8224 69.1773 79.7239 66.4814 84.9931 65.1335C90.3235 63.7856 95.3476 63.3567 95.3476 59.8031C95.3476 57.291 93.5095 55.8206 90.1397 55.8206C86.4636 55.8206 84.4417 57.291 84.3191 60.7221ZM95.3476 66.7265C93.9384 68.0132 91.0587 68.6871 88.608 69.2998C85.8509 69.9738 83.5226 71.383 83.5226 74.2014C83.5226 76.6521 85.2382 78.1839 87.9953 78.1839C93.8159 78.1839 95.3476 71.4443 95.3476 66.7265Z" fill="#EEEEEE"/>
<path d="M106.661 72.3633H114.932C114.932 72.3633 114.932 77.8775 121.672 77.8775C126.267 77.8775 127.492 75.7331 127.492 73.895C127.492 67.1554 107.274 72.3633 107.274 60.1094C107.274 54.5952 112.481 50 121.059 50C133.313 50 135.151 57.046 135.151 60.1094H126.88C126.88 60.1094 126.88 55.8206 121.059 55.8206C117.689 55.8206 115.851 57.5361 115.851 59.4967C115.851 65.011 136.07 61.0285 136.07 72.976C136.07 79.1029 130.862 83.6981 121.672 83.6981C109.112 83.6981 106.661 76.0394 106.661 72.3633Z" fill="#EEEEEE"/>
<path d="M136.63 50.919H165.427V57.6587H155.011V72.6696C155.011 75.4268 155.93 76.3458 158.687 76.3458C160.525 76.3458 161.444 76.0395 161.444 76.0395V82.4727C161.444 82.4727 159.913 83.0854 156.236 83.0854C150.416 83.0854 146.433 81.5537 146.433 74.2014V57.6587H136.63V50.919Z" fill="#EEEEEE"/>
<path d="M168.735 82.7791V51.4092H178.293V56.3107H178.477C180.601 52.7163 183.46 50.919 187.055 50.919C187.994 50.919 188.648 51.0007 189.015 51.1641V59.7418H188.77C185.666 59.2925 183.215 59.8439 181.418 61.3961C179.621 62.9074 178.722 65.3377 178.722 68.6871V82.7791H168.735Z" fill="#EEEEEE"/>
<path d="M200.216 60.7221H191.639C192.129 52.5733 198.684 50 206.037 50C213.695 50 219.822 52.7571 219.822 61.0285V82.7791H211.245V76.6521H210.938C210.938 76.6521 208.978 83.6981 200.829 83.6981C195.008 83.6981 190.719 81.0023 190.719 75.1204C190.719 69.1773 195.621 66.4814 200.89 65.1335C206.221 63.7856 211.245 63.3567 211.245 59.8031C211.245 57.291 209.407 55.8206 206.037 55.8206C202.361 55.8206 200.339 57.291 200.216 60.7221ZM211.245 66.7265C209.835 68.0132 206.956 68.6871 204.505 69.2998C201.748 69.9738 199.42 71.383 199.42 74.2014C199.42 76.6521 201.135 78.1839 203.892 78.1839C209.713 78.1839 211.245 71.4443 211.245 66.7265Z" fill="#EEEEEE"/>
<path d="M36.72 110.628C34.72 110.628 33.1 109.898 31.86 108.438C30.62 106.978 30 104.988 30 102.468C30 100.068 30.62 98.1181 31.86 96.6181C33.12 95.0981 34.74 94.3381 36.72 94.3381C38.56 94.3381 39.99 95.0681 41.01 96.5281H41.1V88.6981H45.99V110.148H41.31V108.078H41.25C40.25 109.778 38.74 110.628 36.72 110.628ZM37.98 106.758C38.98 106.758 39.77 106.368 40.35 105.588C40.93 104.788 41.22 103.748 41.22 102.468C41.22 101.128 40.95 100.058 40.41 99.2581C39.87 98.4381 39.08 98.0281 38.04 98.0281C37.08 98.0281 36.32 98.4281 35.76 99.2281C35.22 100.028 34.95 101.088 34.95 102.408C34.95 103.748 35.22 104.808 35.76 105.588C36.3 106.368 37.04 106.758 37.98 106.758Z" fill="#EEEEEE"/>
<path d="M55.8267 110.598C53.3467 110.598 51.3567 109.838 49.8567 108.318C48.3767 106.778 47.6367 104.818 47.6367 102.438C47.6367 100.118 48.3667 98.1881 49.8267 96.6481C51.3067 95.1081 53.2067 94.3381 55.5267 94.3381C57.6267 94.3381 59.3767 94.9781 60.7767 96.2581C62.6167 97.9381 63.5167 100.428 63.4767 103.728H52.4367C52.5967 104.788 52.9667 105.618 53.5467 106.218C54.1267 106.798 54.9067 107.088 55.8867 107.088C57.1467 107.088 57.9967 106.578 58.4367 105.558H63.2067C62.8467 107.038 61.9867 108.248 60.6267 109.188C59.2867 110.128 57.6867 110.598 55.8267 110.598ZM52.4667 100.818H58.5267C58.4467 99.8981 58.1367 99.1681 57.5967 98.6281C57.0767 98.0881 56.4167 97.8181 55.6167 97.8181C53.8767 97.8181 52.8267 98.8181 52.4667 100.818Z" fill="#EEEEEE"/>
<path d="M71.6538 110.628C69.4138 110.628 67.6238 110.148 66.2838 109.188C64.9638 108.208 64.2638 106.868 64.1838 105.168H68.8038C68.9838 106.688 69.9238 107.448 71.6238 107.448C72.3638 107.448 72.9438 107.318 73.3638 107.058C73.8038 106.778 74.0238 106.398 74.0238 105.918C74.0238 105.758 74.0038 105.618 73.9638 105.498C73.9238 105.378 73.8538 105.268 73.7538 105.168C73.6538 105.068 73.5538 104.978 73.4538 104.898C73.3738 104.818 73.2438 104.748 73.0638 104.688C72.8838 104.608 72.7238 104.548 72.5838 104.508C72.4638 104.468 72.2738 104.428 72.0138 104.388C71.7738 104.328 71.5838 104.288 71.4438 104.268C71.3038 104.228 71.0838 104.188 70.7838 104.148C70.4838 104.088 70.2638 104.048 70.1238 104.028C69.4838 103.928 68.9438 103.828 68.5038 103.728C68.0638 103.608 67.5738 103.428 67.0338 103.188C66.5138 102.948 66.0838 102.678 65.7438 102.378C65.4238 102.058 65.1538 101.638 64.9338 101.118C64.7138 100.578 64.6038 99.9581 64.6038 99.2581C64.6038 97.6981 65.2338 96.4881 66.4938 95.6281C67.7538 94.7681 69.3338 94.3381 71.2338 94.3381C73.3738 94.3381 75.0338 94.7781 76.2138 95.6581C77.3938 96.5181 78.0438 97.7181 78.1638 99.2581H73.6638C73.5038 98.0581 72.6838 97.4581 71.2038 97.4581C70.5638 97.4581 70.0438 97.5781 69.6438 97.8181C69.2638 98.0581 69.0738 98.4081 69.0738 98.8681C69.0738 98.9881 69.0938 99.0981 69.1338 99.1981C69.1738 99.2981 69.2338 99.3881 69.3138 99.4681C69.4138 99.5481 69.5038 99.6181 69.5838 99.6781C69.6838 99.7381 69.8138 99.7981 69.9738 99.8581C70.1338 99.9181 70.2738 99.9681 70.3938 100.008C70.5338 100.048 70.7138 100.088 70.9338 100.128C71.1738 100.168 71.3638 100.208 71.5038 100.248C71.6638 100.268 71.8738 100.308 72.1338 100.368C72.3938 100.408 72.6038 100.438 72.7638 100.458C73.4438 100.578 74.0038 100.688 74.4438 100.788C74.8838 100.888 75.3938 101.068 75.9738 101.328C76.5738 101.568 77.0438 101.858 77.3838 102.198C77.7238 102.518 78.0138 102.968 78.2538 103.548C78.5138 104.108 78.6438 104.768 78.6438 105.528C78.6438 107.168 77.9938 108.428 76.6938 109.308C75.4138 110.188 73.7338 110.628 71.6538 110.628Z" fill="#EEEEEE"/>
<path d="M80.231 110.148V94.7881H85.121V110.148H80.231ZM80.231 92.6581V88.6981H85.121V92.6581H80.231Z" fill="#EEEEEE"/>
<path d="M94.6073 115.458C92.4673 115.458 90.7373 115.028 89.4173 114.168C88.1173 113.328 87.3473 112.108 87.1073 110.508H91.8473C92.1873 111.508 93.0873 112.008 94.5473 112.008C96.5073 112.008 97.4873 111.028 97.4873 109.068V107.538H97.3673C96.3273 108.718 95.0173 109.308 93.4373 109.308C91.5973 109.308 90.0273 108.658 88.7273 107.358C87.4273 106.058 86.7773 104.278 86.7773 102.018C86.7773 99.7581 87.3773 97.9181 88.5773 96.4981C89.7773 95.0581 91.3273 94.3381 93.2273 94.3381C95.1273 94.3381 96.5673 95.0381 97.5473 96.4381H97.6073V94.7881H102.287V108.648C102.287 110.828 101.607 112.528 100.247 113.748C98.9673 114.888 97.0873 115.458 94.6073 115.458ZM94.5773 105.678C95.5973 105.678 96.3673 105.328 96.8873 104.628C97.4273 103.908 97.6973 102.978 97.6973 101.838C97.6973 100.758 97.4173 99.8581 96.8573 99.1381C96.3173 98.3981 95.5573 98.0281 94.5773 98.0281C93.6573 98.0281 92.9173 98.3781 92.3573 99.0781C91.8173 99.7781 91.5473 100.708 91.5473 101.868C91.5473 103.028 91.8173 103.958 92.3573 104.658C92.9173 105.338 93.6573 105.678 94.5773 105.678Z" fill="#EEEEEE"/>
<path d="M104.635 110.148V94.7881H109.345V96.8881H109.435C110.615 95.1881 112.195 94.3381 114.175 94.3381C115.835 94.3381 117.135 94.8781 118.075 95.9581C119.035 97.0181 119.515 98.4181 119.515 100.158V110.148H114.625V101.148C114.625 100.308 114.415 99.6481 113.995 99.1681C113.595 98.6681 113.005 98.4181 112.225 98.4181C111.425 98.4181 110.775 98.7181 110.275 99.3181C109.775 99.9181 109.525 100.698 109.525 101.658V110.148H104.635Z" fill="#EEEEEE"/>
<path d="M135.793 110.628C133.673 110.628 132.123 109.818 131.143 108.198H131.083V110.148H126.403V88.6981H131.293V96.5281H131.383C132.443 95.0681 133.903 94.3381 135.763 94.3381C137.723 94.3381 139.303 95.1081 140.503 96.6481C141.723 98.1881 142.333 100.128 142.333 102.468C142.333 105.008 141.743 107.008 140.563 108.468C139.383 109.908 137.793 110.628 135.793 110.628ZM134.413 106.758C135.353 106.758 136.083 106.378 136.603 105.618C137.123 104.858 137.383 103.798 137.383 102.438C137.383 101.098 137.123 100.038 136.603 99.2581C136.083 98.4581 135.333 98.0581 134.353 98.0581C133.313 98.0581 132.513 98.4681 131.953 99.2881C131.413 100.088 131.143 101.148 131.143 102.468C131.143 103.748 131.433 104.788 132.013 105.588C132.613 106.368 133.413 106.758 134.413 106.758Z" fill="#EEEEEE"/>
<path d="M149.261 110.598C147.521 110.598 146.181 110.088 145.241 109.068C144.321 108.028 143.861 106.628 143.861 104.868V94.7881H148.721V103.848C148.721 105.588 149.491 106.458 151.031 106.458C151.871 106.458 152.531 106.178 153.011 105.618C153.491 105.038 153.731 104.288 153.731 103.368V94.7881H158.621V110.148H153.941V108.258H153.851C152.691 109.818 151.161 110.598 149.261 110.598Z" fill="#EEEEEE"/>
<path d="M160.973 110.148V94.7881H165.653V97.1881H165.743C166.783 95.4281 168.183 94.5481 169.943 94.5481C170.403 94.5481 170.723 94.5881 170.903 94.6681V98.8681H170.783C169.263 98.6481 168.063 98.9181 167.183 99.6781C166.303 100.418 165.863 101.608 165.863 103.248V110.148H160.973Z" fill="#EEEEEE"/>
<path d="M179.665 110.598C177.185 110.598 175.195 109.838 173.695 108.318C172.215 106.778 171.475 104.818 171.475 102.438C171.475 100.118 172.205 98.1881 173.665 96.6481C175.145 95.1081 177.045 94.3381 179.365 94.3381C181.465 94.3381 183.215 94.9781 184.615 96.2581C186.455 97.9381 187.355 100.428 187.315 103.728H176.275C176.435 104.788 176.805 105.618 177.385 106.218C177.965 106.798 178.745 107.088 179.725 107.088C180.985 107.088 181.835 106.578 182.275 105.558H187.045C186.685 107.038 185.825 108.248 184.465 109.188C183.125 110.128 181.525 110.598 179.665 110.598ZM176.305 100.818H182.365C182.285 99.8981 181.975 99.1681 181.435 98.6281C180.915 98.0881 180.255 97.8181 179.455 97.8181C177.715 97.8181 176.665 98.8181 176.305 100.818Z" fill="#EEEEEE"/>
<path d="M193.482 110.538C191.902 110.538 190.632 110.128 189.672 109.308C188.712 108.488 188.232 107.338 188.232 105.858C188.232 104.298 188.752 103.168 189.792 102.468C190.832 101.748 192.272 101.268 194.112 101.028C195.612 100.848 196.632 100.648 197.172 100.428C197.732 100.188 198.012 99.8181 198.012 99.3181C198.012 98.2181 197.312 97.6681 195.912 97.6681C194.412 97.6681 193.582 98.3281 193.422 99.6481H188.922C188.982 98.1281 189.602 96.8681 190.782 95.8681C191.982 94.8681 193.682 94.3681 195.882 94.3681C198.082 94.3681 199.742 94.7881 200.862 95.6281C202.162 96.5681 202.812 98.0281 202.812 100.008V107.748C202.812 108.968 202.992 109.698 203.352 109.938V110.148H198.612C198.412 109.868 198.242 109.298 198.102 108.438H198.042C197.062 109.838 195.542 110.538 193.482 110.538ZM195.042 107.418C195.962 107.418 196.702 107.168 197.262 106.668C197.842 106.148 198.132 105.478 198.132 104.658V102.828C197.652 103.068 196.812 103.338 195.612 103.638C194.632 103.858 193.942 104.118 193.542 104.418C193.142 104.718 192.942 105.148 192.942 105.708C192.942 106.848 193.642 107.418 195.042 107.418Z" fill="#EEEEEE"/>
<path d="M210.462 110.598C208.722 110.598 207.382 110.088 206.442 109.068C205.522 108.028 205.062 106.628 205.062 104.868V94.7881H209.922V103.848C209.922 105.588 210.692 106.458 212.232 106.458C213.072 106.458 213.732 106.178 214.212 105.618C214.692 105.038 214.932 104.288 214.932 103.368V94.7881H219.822V110.148H215.142V108.258H215.052C213.892 109.818 212.362 110.598 210.462 110.598Z" fill="#EEEEEE"/>
</svg>
